<svg version="1.1" id="Layer_1" xmlns="http://www.w3.org/2000/svg" xmlns:xlink="http://www.w3.org/1999/xlink" x="0px" y="0px"
	 width="100%" viewBox="0 0 1024 1024" enable-background="new 0 0 1024 1024" xml:space="preserve">
<path fill="#000000" opacity="1.000000" stroke="none" 
	d="
M350.092163,235.010040 
	C370.365509,222.398972 392.188263,214.243439 414.267029,206.549118 
	C425.186707,202.743652 436.256958,199.488617 447.539917,197.344070 
	C453.139557,196.279770 458.707062,194.663666 464.623932,194.540741 
	C471.353699,194.400909 478.119781,193.147537 484.825836,192.249359 
	C501.446320,190.023254 517.934814,189.932327 534.502686,192.394516 
	C540.702881,193.315918 546.952820,193.064072 553.232849,194.455505 
	C565.457214,197.164001 577.843262,199.072464 589.873901,202.745651 
	C606.042542,207.682251 622.063721,212.922287 637.378479,220.205215 
	C670.504578,235.958206 699.913452,256.701263 725.084778,283.546783 
	C755.998108,316.516235 778.484375,354.648102 793.698914,396.873657 
	C808.423828,437.740601 813.976501,480.132782 810.491577,523.634521 
	C806.293823,576.034546 789.702332,624.105591 760.771301,667.897400 
	C744.693909,692.233215 725.778259,714.288635 702.735474,732.190918 
	C670.427124,757.291870 635.219849,777.048523 595.458374,788.446777 
	C565.000305,797.178040 534.249695,803.171753 502.570343,802.834656 
	C471.567169,802.504822 441.427185,796.312622 411.960114,786.851013 
	C373.565033,774.522705 338.967102,755.125732 308.399445,728.998718 
	C268.945068,695.276123 240.500198,653.508240 221.370071,605.360107 
	C216.247665,592.467590 211.846481,579.237366 209.173706,565.660889 
	C207.047638,554.861267 205.577560,543.869629 204.272751,532.869629 
	C202.452347,517.523132 203.119308,502.298798 202.873917,487.031403 
	C202.695709,475.943573 204.541351,464.971588 206.426437,454.033142 
	C207.320526,448.845062 207.515182,443.556366 208.335236,438.309540 
	C209.463364,431.091705 211.428299,424.110443 213.208252,417.136169 
	C216.140076,405.648560 219.823669,394.325684 224.404053,383.327393 
	C231.959396,365.185669 240.892914,347.725952 251.679321,331.347107 
	C268.209137,306.247070 287.259979,283.170746 309.871246,263.224274 
	C320.370697,253.962204 332.523743,246.968948 344.032959,239.104065 
	C345.937378,237.802673 347.861145,236.493073 350.092163,235.010040 
M711.535522,509.020752 
	C720.045593,499.313904 725.456970,488.452087 724.630920,475.098175 
	C723.080627,450.036194 723.761841,424.883881 720.845093,399.852295 
	C719.519653,388.477997 717.303894,378.557587 706.088135,372.967407 
	C702.729736,371.293457 700.603760,368.219696 698.627441,365.068451 
	C697.296570,362.946167 695.742432,360.824402 692.712158,361.266052 
	C679.210693,363.233521 668.750061,358.134308 660.552490,347.591766 
	C653.353638,338.333679 645.065979,330.126709 635.637878,323.176575 
	C616.629639,309.164032 596.032532,298.193726 573.846313,289.889282 
	C550.159668,281.023224 525.651367,278.262451 500.745697,278.699371 
	C482.547119,279.018616 464.772278,282.866058 447.375366,288.428680 
	C411.384583,299.936584 380.178070,318.794769 355.186798,347.447388 
	C349.278656,354.221039 343.525055,361.234985 334.210663,363.682190 
	C331.605408,364.366669 329.328583,364.631470 327.547455,362.074310 
	C325.843811,359.628387 327.019592,357.767334 328.466278,355.763336 
	C335.313049,346.279144 342.892578,337.307800 351.424225,329.436432 
	C374.089142,308.525513 398.973297,291.225586 428.358215,280.305054 
	C462.280792,267.698151 496.706635,261.888794 532.674011,266.620850 
	C577.175476,272.475677 616.888000,289.680206 651.813904,317.799316 
	C663.771606,327.426544 674.401367,338.502899 684.714417,349.865417 
	C686.499878,351.832550 688.083862,354.319794 691.656616,353.970886 
	C690.923706,349.113739 688.755676,345.390900 686.208679,341.890717 
	C681.890198,335.956268 677.191162,330.322327 672.059998,325.071564 
	C642.341675,294.660736 606.525391,274.911346 565.794128,263.219299 
	C537.633301,255.135635 509.088013,252.666931 480.268311,256.482849 
	C452.710541,260.131744 426.359924,268.849762 401.465790,281.189636 
	C373.790314,294.908203 350.380249,314.152679 331.006439,338.353790 
	C322.055786,349.534668 316.523315,362.636230 309.118866,374.670776 
	C305.130585,381.152954 302.555878,388.055817 301.317139,395.570709 
	C299.992493,403.606750 297.820282,411.524384 296.855438,419.593842 
	C295.115723,434.143890 290.996643,449.034119 300.604675,462.658325 
	C301.065765,463.312103 301.204163,464.202637 301.453217,464.995331 
	C303.853882,472.636658 302.840790,476.129761 296.389679,480.894073 
	C294.005829,482.654633 293.074615,484.473938 294.433624,487.212463 
	C298.502197,495.411316 301.633484,504.508728 308.150635,510.874451 
	C322.731598,525.116760 334.633392,541.650513 348.743927,556.306580 
	C366.060089,574.292236 385.990906,588.440186 407.394531,600.786804 
	C420.667206,608.443176 435.105743,613.416687 449.559631,618.352661 
	C465.677063,623.856689 482.292267,626.573242 499.190948,626.614380 
	C513.087036,626.648254 526.997009,627.873718 540.967529,625.151733 
	C547.164246,623.944458 554.022156,623.908691 559.966858,622.061768 
	C578.686768,616.245667 597.446960,610.702332 614.570312,600.237732 
	C631.432129,589.932983 646.837585,577.989441 661.349915,564.846375 
	C672.042664,555.162537 682.171997,544.835876 688.932434,531.659485 
	C693.861450,522.052612 703.291016,516.542480 711.535522,509.020752 
M240.945129,583.669922 
	C275.644135,684.848083 374.191406,765.550049 491.702332,773.427490 
	C585.745056,779.731812 689.442749,729.616272 745.373352,639.400146 
	C783.818420,577.388245 791.909729,510.221893 780.294983,439.617310 
	C776.113647,442.804047 775.390381,447.151062 775.268555,451.639709 
	C774.626953,475.271912 773.761475,498.893616 770.271851,522.314880 
	C765.183472,556.467102 756.044250,589.330566 738.954651,619.646301 
	C708.036926,674.492249 663.090881,713.734924 605.362183,738.063416 
	C565.077209,755.040649 522.890930,761.276733 479.230438,756.180542 
	C452.927582,753.110474 427.489136,746.890076 403.304596,735.952698 
	C376.872223,723.998779 352.559204,708.809875 330.961029,689.281372 
	C300.824402,662.032532 277.812714,629.738647 261.531830,592.604675 
	C245.705872,556.508423 239.498077,518.441345 238.675278,479.298615 
	C238.534775,472.614258 238.787811,465.903442 240.345215,459.447784 
	C248.556915,425.409424 260.983856,393.160126 279.641052,363.263123 
	C301.784973,327.778809 329.629822,297.926208 364.493286,274.938354 
	C407.088013,246.852798 454.629883,234.237778 505.219543,232.866776 
	C530.675354,232.176910 555.696045,236.730972 580.041748,243.856949 
	C627.193054,257.658112 667.206482,283.114197 700.308716,319.486450 
	C720.160278,341.299072 735.105957,366.156464 746.803345,393.076599 
	C748.267700,396.446594 750.175903,399.869354 749.444946,403.924591 
	C743.655945,404.535828 739.655823,398.847137 733.933960,399.832367 
	C733.979187,402.027100 735.072998,403.325195 735.990051,404.690918 
	C741.754089,413.274414 748.155762,421.374634 754.700684,429.367126 
	C759.405884,435.113037 760.832092,435.038513 764.952209,428.985931 
	C770.196960,421.280975 774.334778,412.864136 780.152588,405.523682 
	C781.606750,403.688934 782.374451,401.541473 781.054260,398.959106 
	C777.033325,400.595428 773.135803,402.002747 769.397888,403.751495 
	C765.422852,405.611267 763.855164,404.322784 762.871094,400.229065 
	C759.348755,385.576813 753.969727,371.481079 746.338440,358.575775 
	C707.771301,293.355194 652.650146,249.178802 579.429382,228.041809 
	C554.229919,220.767349 528.514038,217.543335 502.492737,217.654449 
	C477.122681,217.762756 452.169281,221.673813 427.743439,229.126785 
	C396.530914,238.650513 367.360840,252.177185 341.343811,271.904785 
	C307.133362,297.845062 280.311768,330.241821 259.450592,367.692505 
	C240.692688,401.367249 229.562698,437.450378 226.540985,475.779541 
	C223.655350,512.382690 228.560699,548.192200 240.945129,583.669922 
M681.519470,617.993469 
	C654.950134,646.921936 622.721680,667.489380 586.151245,681.125000 
	C536.768616,699.537842 486.703857,699.137695 436.600952,684.158691 
	C413.301361,677.192810 391.994446,666.010864 372.074219,651.948181 
	C336.518158,626.847351 309.184296,595.087585 292.175537,554.871948 
	C281.985229,530.778015 276.745605,505.370514 273.853638,479.471527 
	C273.297791,474.493469 273.114838,469.357086 274.122375,463.913727 
	C276.615173,465.365570 278.555054,466.625366 280.609772,467.656342 
	C282.769867,468.740204 285.051941,470.614746 287.436096,468.266571 
	C289.598633,466.136597 288.072113,463.789246 287.150970,461.786499 
	C282.592438,451.875275 275.717529,443.453369 269.373627,434.697052 
	C268.899323,434.042389 268.083252,433.636047 266.716003,434.113678 
	C260.486450,445.062164 253.593704,456.054352 249.887634,468.630798 
	C249.372086,470.380280 248.854187,472.167755 250.542969,473.584076 
	C256.445770,473.759827 258.241547,466.763367 263.614380,466.149750 
	C265.679474,468.569183 265.373810,471.362762 265.082947,473.925293 
	C263.873779,484.577301 264.520477,495.187042 265.064178,505.844086 
	C266.114197,526.425110 271.590729,545.952393 279.748444,564.592346 
	C298.578064,607.617004 329.176941,640.638733 367.524536,667.312256 
	C403.629913,692.426025 443.854706,705.887756 486.975311,710.277954 
	C518.161743,713.453064 549.118103,709.640442 579.163513,699.795776 
	C621.356384,685.970703 658.716248,664.517273 689.524353,632.069092 
	C736.101562,583.012329 755.027344,523.939758 753.573975,457.375214 
	C753.475769,452.876465 752.292786,448.339966 748.928345,444.309723 
	C745.940613,447.318054 745.824768,450.742401 745.327026,453.915314 
	C743.136475,467.880432 742.296875,482.020630 739.391907,495.908569 
	C734.577942,518.923401 729.121643,541.722656 719.005310,563.094849 
	C709.518433,583.137329 696.134460,600.569519 681.519470,617.993469 
M587.709351,626.371704 
	C553.137268,639.162231 517.581360,642.605347 481.047333,638.222961 
	C450.004150,634.499207 421.029541,625.115784 394.156311,609.015869 
	C365.867279,592.067749 341.153412,571.013123 319.800598,545.935791 
	C314.780823,540.040466 309.277466,534.654541 302.711151,529.717285 
	C302.109497,532.306580 303.184387,533.687195 303.980713,535.075378 
	C312.374084,549.707397 321.566528,563.887756 333.028351,576.242432 
	C366.811432,612.656860 408.107819,636.443604 456.533844,647.580261 
	C484.188965,653.940247 512.193054,655.778503 540.313354,651.403137 
	C585.931458,644.305176 626.831848,626.601074 661.773132,595.973328 
	C679.073975,580.808289 693.985779,563.682251 704.983521,543.343750 
	C706.119873,541.242249 707.549683,539.197083 706.615540,535.227600 
	C696.093750,543.473511 689.989014,554.622009 681.019653,563.057068 
	C671.920044,571.614563 663.182190,580.557495 653.288330,588.214783 
	C643.282104,595.959045 633.277161,603.699463 622.202881,609.963928 
	C611.307312,616.127319 600.118286,621.610352 587.709351,626.371704 
z"/>
<path fill="#000000" opacity="1.000000" stroke="none" 
	d="
M508.193970,400.002380 
	C511.474915,398.114227 514.201294,398.756866 517.088684,400.148895 
	C527.562744,405.198181 537.974854,410.432373 549.489197,412.855133 
	C551.240112,413.223541 553.123352,414.447632 554.247009,412.038513 
	C555.361145,409.649811 553.360107,408.864807 551.827271,407.878998 
	C546.227966,404.278076 542.739990,393.911011 545.153503,387.748535 
	C546.725586,383.734344 550.629395,382.574493 554.096191,381.086578 
	C572.544678,373.168976 591.081055,365.441040 608.743652,355.834290 
	C618.812622,350.357727 628.752258,349.103119 639.606750,354.223633 
	C660.837769,364.239288 682.829346,372.570923 703.945740,382.886597 
	C708.553284,385.137512 710.498535,387.653595 710.453125,393.065216 
	C710.171692,426.548126 710.206299,460.035461 710.438293,493.519226 
	C710.477905,499.240662 709.029785,501.885406 703.245422,504.342743 
	C686.406311,511.496399 670.135193,519.983215 653.610107,527.881958 
	C647.751221,530.682373 641.816101,533.325317 635.889771,535.982178 
	C632.026855,537.713928 628.323730,537.631042 624.387268,535.653137 
	C618.591370,532.741028 612.694336,529.884094 606.564148,527.826111 
	C600.915405,525.929810 598.823120,522.727844 599.894653,517.016479 
	C600.288208,514.918457 599.948914,512.681396 601.357971,510.319061 
	C606.306152,511.189728 610.704529,513.970398 615.527832,515.462280 
	C621.343323,517.261047 621.610413,517.105164 621.698364,510.849670 
	C621.834351,501.184631 620.235962,491.570862 620.892883,481.893494 
	C621.044067,479.667389 620.272949,478.141174 618.036377,477.222015 
	C613.271423,475.263702 608.600281,473.077850 603.877258,471.016144 
	C602.653198,470.481873 601.091003,470.143036 600.984009,468.596619 
	C600.724548,464.847382 599.293945,461.169830 599.861023,457.392487 
	C603.715210,455.801208 606.256836,458.312256 609.003784,459.535431 
	C623.116943,465.819885 621.718750,466.073547 621.725464,451.090576 
	C621.728333,444.757660 621.587219,438.423645 621.674194,432.092377 
	C621.709717,429.510437 621.128052,427.595306 618.570618,426.466339 
	C599.381409,417.995514 580.215820,409.471161 561.030640,400.991241 
	C560.299011,400.667877 559.442566,400.627045 558.683167,400.462952 
	C554.864685,408.461395 556.702698,414.503174 564.187866,418.215149 
	C571.781982,421.981171 579.647949,425.105438 586.932617,429.620667 
	C590.654297,431.927429 591.643677,434.351410 591.337830,438.064819 
	C589.269287,463.181183 590.689697,488.347565 590.264832,513.487488 
	C590.093201,523.649658 590.235535,533.819458 590.393433,543.983398 
	C590.437927,546.842773 589.571777,548.731567 586.854919,549.842407 
	C563.724304,559.300110 541.705811,571.191345 518.737915,581.014526 
	C513.680664,583.177490 509.242981,583.248169 504.016205,580.820374 
	C481.969727,570.579895 459.513367,561.263184 436.943512,552.224426 
	C430.487000,549.638733 430.229462,548.218445 430.438660,541.127563 
	C430.836212,527.650330 431.469757,514.140259 429.971588,500.687439 
	C429.371460,495.299011 430.882965,490.061523 430.663422,484.744873 
	C430.100372,471.110016 429.635162,457.462952 428.623016,443.858551 
	C428.169373,437.761261 430.533966,434.671478 435.784058,431.861481 
	C455.778320,421.160034 476.826599,412.827209 497.494415,403.642700 
	C500.798828,402.174286 504.377197,401.322296 508.193970,400.002380 
M584.400269,395.966614 
	C598.405701,402.943451 612.907043,408.774933 627.384949,414.667755 
	C629.372253,415.476624 631.092407,415.737579 633.095703,414.833740 
	C648.404114,407.926666 663.758850,401.121979 679.046265,394.169098 
	C681.819946,392.907623 684.351196,391.113007 687.192139,389.448608 
	C684.881897,387.081635 682.351074,386.563507 680.075806,385.757141 
	C663.591431,379.915344 648.019775,371.914551 631.807312,365.422089 
	C627.011108,363.501404 622.984924,362.601227 618.339050,365.520050 
	C615.565796,367.262421 612.192383,368.023987 609.157104,369.379364 
	C595.528076,375.465393 581.554565,380.820190 568.056335,388.342590 
	C573.121826,391.901855 578.607666,393.378998 584.400269,395.966614 
M454.061096,438.460663 
	C454.505066,438.921082 454.863678,439.575256 455.405334,439.813965 
	C473.838165,447.936554 492.543335,455.383514 511.454346,462.316803 
	C513.128784,462.930695 514.681702,462.643860 516.278320,461.936951 
	C531.955627,454.995789 547.700928,448.201874 563.003235,440.448914 
	C564.555664,439.662354 566.485718,439.197845 567.224121,436.986755 
	C566.086914,435.505402 564.362000,434.823334 562.703613,434.179749 
	C545.773621,427.609406 529.318970,419.952881 512.869019,412.296326 
	C510.517822,411.201965 508.843262,411.882904 506.802032,412.740814 
	C492.214783,418.871643 478.579956,427.031860 463.824493,432.816162 
	C460.468994,434.131622 456.841278,435.133453 454.061096,438.460663 
M456.552124,544.753235 
	C459.457458,545.972290 462.553040,546.872681 465.231323,548.471924 
	C472.399384,552.752319 479.908752,556.301392 487.623901,559.407410 
	C492.801483,561.491821 498.060913,563.468384 503.456818,564.221863 
	C505.152466,562.046692 504.646667,559.965576 504.697571,558.036987 
	C504.890686,550.721436 504.648773,543.381592 505.141998,536.089600 
	C505.908051,524.764893 507.620544,527.329712 496.349579,521.497681 
	C495.910095,521.270325 495.414154,521.153809 494.948792,520.974548 
	C478.528259,514.647827 462.108368,508.319611 445.687866,501.992889 
	C444.739136,501.627350 443.787750,501.313995 442.445068,502.521912 
	C442.082397,509.357849 441.507874,516.627014 441.376251,523.904175 
	C441.286621,528.860657 439.413666,534.530762 441.952698,538.618408 
	C444.683807,543.015320 451.180420,542.393188 456.552124,544.753235 
M504.632202,508.608185 
	C506.172577,506.157623 505.776428,503.406586 505.524628,500.815094 
	C504.829956,493.666412 504.669281,486.509033 504.938538,479.352386 
	C505.063568,476.029541 503.809601,474.389893 500.771637,472.962646 
	C483.282532,464.746216 464.697662,459.222198 447.226166,450.982880 
	C445.754669,450.288971 444.173309,449.623871 442.490387,450.444702 
	C441.244781,452.441223 441.374969,454.633331 441.362366,456.781036 
	C441.313477,465.109436 441.557617,473.450378 441.162323,481.761414 
	C440.960022,486.014465 442.815613,487.333252 446.440979,488.660736 
	C458.444153,493.055878 470.748322,496.688019 482.241638,502.435120 
	C489.114197,505.871613 496.308044,508.392517 504.632202,508.608185 
M659.210571,462.709381 
	C653.145874,466.171417 647.013733,469.522003 641.042603,473.138489 
	C637.619690,475.211609 634.574890,477.601135 634.265381,482.307800 
	C633.577454,492.767944 633.112183,503.224701 633.363342,513.705139 
	C633.409302,515.623291 632.842651,517.718994 634.714172,519.558594 
	C636.378479,516.806091 636.643799,513.908325 636.641846,510.931854 
	C636.637207,503.944275 636.777954,496.953918 636.619751,489.970123 
	C636.514038,485.305542 638.337524,481.975037 642.383850,479.756256 
	C651.982849,474.492584 660.852539,467.985413 671.196655,463.955780 
	C677.035767,461.681152 682.357483,458.057709 687.858521,454.946838 
	C689.792542,453.853119 691.916260,452.689301 691.222656,448.962494 
	C680.478699,453.556946 670.175842,457.962769 659.210571,462.709381 
M549.152283,511.561554 
	C572.407532,500.613556 574.468079,499.199280 575.410095,493.524689 
	C573.805481,492.958496 572.518738,493.853363 571.193848,494.488495 
	C553.990967,502.735870 536.585510,510.592163 521.723328,522.968262 
	C518.918884,525.303650 517.238953,527.497681 517.300415,531.232544 
	C517.461853,541.040283 517.349976,550.852295 517.422974,560.661987 
	C517.436157,562.425049 517.811951,564.185486 518.020386,565.947083 
	C519.984070,555.431396 520.900452,545.025085 520.567322,534.578552 
	C520.435181,530.437195 521.895447,527.661804 525.212219,525.388184 
	C532.634155,520.300537 540.440308,515.898376 549.152283,511.561554 
M517.337524,481.775330 
	C517.673584,491.488770 516.542725,501.263550 518.774536,510.946747 
	C519.795471,502.716278 520.410217,494.467041 520.597534,486.208069 
	C520.822449,476.294281 520.944580,475.612793 530.324951,472.045624 
	C539.660034,468.495636 547.898804,463.017059 556.417603,457.976013 
	C545.436157,463.558441 533.571350,467.008545 522.488281,472.338928 
	C518.652100,474.183929 516.712769,476.600525 517.337524,481.775330 
M633.324402,456.452637 
	C633.670532,460.774261 632.435425,465.300781 634.758545,469.691162 
	C636.979797,467.563354 636.615234,465.161987 636.634338,462.909607 
	C636.710632,453.926056 636.812195,444.941132 636.724426,435.958466 
	C636.680481,431.455536 638.365723,428.364471 642.576050,426.505157 
	C645.094849,425.392853 647.399353,423.795502 649.800232,422.416199 
	C647.554810,422.187927 645.917908,423.004395 644.193298,423.536072 
	C635.761719,426.135315 632.409180,431.761658 633.258911,440.501678 
	C633.739624,445.445465 633.332642,450.475555 633.324402,456.452637 
z"/>
<path fill="#000000" opacity="1.000000" stroke="none" 
	d="
M310.755920,445.999756 
	C310.769867,428.335358 310.941345,411.168701 310.696503,394.007965 
	C310.623962,388.921234 312.654602,386.178101 316.977814,383.852570 
	C340.603363,371.143951 366.136902,362.797974 390.393005,351.535950 
	C394.803467,349.488220 399.795685,349.741455 404.465393,351.815826 
	C421.617554,359.435089 438.755219,367.087982 455.955902,374.596375 
	C461.264221,376.913513 466.465607,379.513977 472.109161,381.052612 
	C474.922272,381.819550 476.710938,383.698914 476.312866,386.946930 
	C476.292755,387.111176 476.318695,387.280548 476.307983,387.446533 
	C475.975830,392.586548 477.608612,398.220428 475.296692,402.756317 
	C472.909882,407.439178 466.592682,406.478912 462.249237,408.619995 
	C451.793854,413.774200 441.283905,418.825928 430.690491,423.689209 
	C421.809479,427.766418 418.501465,434.983612 418.377563,444.190338 
	C418.312500,449.022858 418.215118,453.861603 418.390747,458.688141 
	C418.499634,461.680328 417.521332,463.515350 414.863708,465.136230 
	C411.126648,467.415466 407.092316,469.618835 404.795715,474.322052 
	C408.130127,475.709198 410.547699,473.856720 413.060486,473.060150 
	C418.343781,471.385315 419.325073,471.982971 419.330353,477.424774 
	C419.341949,489.423645 419.274078,501.422607 419.250793,513.421509 
	C419.247894,514.920898 419.077423,516.473572 419.393982,517.911316 
	C421.492462,527.442810 420.919128,527.195618 410.557831,530.839722 
	C408.829803,531.447510 406.908325,531.758423 405.410126,532.724365 
	C396.735931,538.317200 388.999756,536.398438 380.419098,531.544006 
	C359.947052,519.962219 337.820343,511.838928 316.204102,502.683502 
	C312.253876,501.010376 310.618225,498.878693 310.679260,494.497437 
	C310.902069,478.500977 310.759308,462.499390 310.755920,445.999756 
M401.058594,364.655060 
	C397.023651,361.336212 393.360901,362.388428 388.907013,364.540009 
	C375.286102,371.120056 361.835297,378.098846 347.682434,383.556427 
	C343.916138,385.008759 339.939178,386.334106 337.068848,389.285309 
	C337.420471,390.712128 338.343933,391.230438 339.226379,391.624420 
	C356.684021,399.418182 373.807007,407.997986 392.041077,413.973938 
	C394.353180,414.731689 396.230591,414.254517 398.263519,413.417816 
	C415.363525,406.379517 431.450165,397.241852 448.129700,389.332458 
	C449.389008,388.735260 451.041992,388.428467 451.673859,386.302917 
	C434.585297,380.199249 418.552612,371.687164 401.058594,364.655060 
M371.468842,473.171631 
	C356.135254,466.668671 340.687836,460.466095 324.915649,454.769684 
	C322.526550,466.327972 323.695770,477.314423 323.495636,488.245850 
	C323.446899,490.909821 325.297638,492.010345 327.498779,492.658081 
	C343.390076,497.334564 357.749359,505.448822 372.532135,512.625000 
	C377.435944,515.005554 382.609833,516.728638 388.029053,517.818726 
	C388.300903,517.148315 388.632385,516.708374 388.636505,516.265503 
	C388.738098,505.292389 388.785309,494.318817 388.893616,483.345795 
	C388.917358,480.936981 387.544647,479.783264 385.541229,478.958130 
	C381.087372,477.123840 376.658630,475.228577 371.468842,473.171631 
M345.503693,410.115814 
	C339.998077,407.769562 334.467834,405.478943 328.996552,403.055237 
	C325.931244,401.697357 324.160187,402.439026 323.866669,405.854767 
	C322.939819,416.641296 323.087738,427.439453 323.762115,438.229309 
	C323.918213,440.726807 325.071533,442.251831 327.995697,442.843048 
	C333.025787,443.860107 337.899780,445.636902 342.854614,447.040833 
	C356.654938,450.951172 368.847443,458.972321 382.756500,462.610168 
	C387.895935,463.954407 388.728394,463.504211 388.623474,458.164673 
	C388.463501,450.024414 387.796997,441.888611 387.823608,433.752502 
	C387.836639,429.771240 386.224365,427.957123 382.803223,426.272797 
	C370.852814,420.389221 358.409119,415.685150 345.503693,410.115814 
M400.313416,456.922699 
	C400.663452,458.160095 399.644653,459.649017 401.304199,461.097565 
	C401.794525,452.448364 402.464783,444.155396 401.681702,435.904755 
	C401.173279,430.548340 403.022919,427.561371 407.936676,425.573151 
	C413.015137,423.518280 418.269043,421.582672 422.348236,417.605774 
	C414.896973,419.468384 408.531006,423.795990 401.503723,426.601532 
	C399.300659,427.481140 399.405518,429.646576 399.494293,431.748871 
	C399.836548,439.853973 400.049713,447.964539 400.313416,456.922699 
M401.318298,491.090942 
	C400.714050,487.017151 400.685028,482.916168 400.934448,478.802032 
	C399.785980,484.421967 400.018341,511.707855 401.449890,515.748413 
	C401.449890,507.836029 401.449890,499.923676 401.318298,491.090942 
z"/>
<path fill="#000000" opacity="1.000000" stroke="none" 
	d="
M468.371094,534.345093 
	C468.124542,537.924805 468.772247,541.105591 467.841492,544.198914 
	C465.625671,544.945801 464.356567,543.290161 462.903076,542.372375 
	C460.079376,540.589355 457.305115,538.586182 453.980743,538.049805 
	C448.761749,537.207764 447.121155,534.225525 447.700256,529.283264 
	C448.201721,525.003906 448.470673,520.692688 448.704712,516.388123 
	C448.841583,513.870911 450.093231,513.140320 452.309357,513.796936 
	C457.091095,515.213562 461.863312,516.638123 466.852783,517.160522 
	C469.859009,517.475403 470.666229,519.345947 470.227936,522.077209 
	C469.596619,526.011475 468.998840,529.951172 468.371094,534.345093 
z"/>
<path fill="#000000" opacity="1.000000" stroke="none" 
	d="
M459.314575,463.568115 
	C463.391815,464.528564 467.066040,465.409454 471.236206,466.409210 
	C469.059113,474.995483 468.736938,483.514008 467.462158,493.125000 
	C461.541626,488.211365 455.809143,485.771942 449.716644,484.108124 
	C447.937103,483.622101 447.691742,482.107727 447.681885,480.530609 
	C447.642578,474.243225 447.308685,467.929108 449.367645,461.577728 
	C452.799286,461.049408 455.743073,462.916229 459.314575,463.568115 
z"/>
<path fill="#000000" opacity="1.000000" stroke="none" 
	d="
M331.232422,470.608734 
	C331.124420,468.875275 330.900055,467.524811 332.285614,465.786713 
	C338.336395,468.131531 344.937927,469.365662 351.667267,469.968903 
	C353.295593,470.114868 353.733307,471.533173 353.490479,473.000549 
	C352.193695,480.837738 350.856476,488.668213 349.305511,497.848969 
	C343.834991,493.068176 337.776398,491.031342 331.931061,488.513733 
	C330.290588,487.807159 330.678314,485.918182 330.721680,484.461761 
	C330.855316,479.978912 331.082581,475.498871 331.232422,470.608734 
z"/>
<path fill="#000000" opacity="1.000000" stroke="none" 
	d="
M344.857941,444.269836 
	C341.586975,441.233673 338.102081,439.334625 334.059509,438.709656 
	C331.109344,438.253571 330.326202,436.759796 330.535217,433.907562 
	C330.875275,429.267365 331.002014,424.591980 330.860748,419.942383 
	C330.751556,416.349823 332.104340,415.024200 335.579163,415.754700 
	C340.450470,416.778717 345.330414,417.762390 350.196014,418.812622 
	C352.141998,419.232666 353.847412,420.165253 353.273895,422.509674 
	C351.725739,428.838226 351.710205,435.345306 350.819427,441.747101 
	C350.295868,445.509735 348.627472,446.829712 344.857941,444.269836 
z"/>
</svg>